<?xml version="1.0" standalone="no"?>
<!DOCTYPE svg PUBLIC "-//W3C//DTD SVG 20010904//EN"
 "http://www.w3.org/TR/2001/REC-SVG-20010904/DTD/svg10.dtd">
<svg version="1.0" xmlns="http://www.w3.org/2000/svg"
 width="36.000000pt" height="36.000000pt" viewBox="0 0 36.000000 36.000000"
 preserveAspectRatio="xMidYMid meet">

<g transform="translate(0.000000,36.000000) scale(0.100000,-0.100000)"
fill="#000000" stroke="none">
<path d="M126 346 c-89 -33 -138 -123 -115 -209 14 -54 72 -112 127 -126 121
-33 244 89 212 209 -27 100 -132 159 -224 126z m135 -29 c106 -71 106 -203 0
-274 -98 -66 -241 15 -241 137 0 122 143 203 241 137z"/>
<path d="M113 233 c-20 -7 -17 -99 3 -107 20 -8 108 -8 128 0 23 9 23 99 0
108 -18 7 -113 7 -131 -1z m78 -33 c26 -14 24 -25 -6 -38 -24 -11 -25 -10 -25
18 0 33 3 35 31 20z"/>
</g>
</svg>
