<?xml version="1.0" standalone="no"?>
<!DOCTYPE svg PUBLIC "-//W3C//DTD SVG 20010904//EN"
 "http://www.w3.org/TR/2001/REC-SVG-20010904/DTD/svg10.dtd">
<svg version="1.0" xmlns="http://www.w3.org/2000/svg"
 width="36.000000pt" height="36.000000pt" viewBox="0 0 36.000000 36.000000"
 preserveAspectRatio="xMidYMid meet">

<g transform="translate(0.000000,36.000000) scale(0.100000,-0.100000)"
fill="#000000" stroke="none">
<path d="M125 345 c-51 -18 -101 -72 -115 -124 -32 -121 91 -243 212 -210 55
14 113 72 127 127 35 129 -98 253 -224 207z m136 -28 c106 -71 106 -203 0
-274 -98 -66 -241 15 -241 137 0 122 143 203 241 137z"/>
<path d="M107 254 c-11 -11 3 -24 18 -18 8 4 12 10 9 15 -6 11 -18 12 -27 3z"/>
<path d="M106 163 c2 -66 24 -69 24 -4 0 34 -4 51 -12 51 -9 0 -13 -15 -12
-47z"/>
<path d="M160 159 c0 -37 4 -49 15 -49 11 0 15 11 15 41 0 33 3 40 18 37 12
-2 18 -14 20 -41 2 -23 8 -37 17 -37 9 0 12 11 9 41 -5 55 -8 58 -54 57 l-40
0 0 -49z"/>
</g>
</svg>
