<?xml version="1.0" standalone="no"?>
<!DOCTYPE svg PUBLIC "-//W3C//DTD SVG 20010904//EN"
 "http://www.w3.org/TR/2001/REC-SVG-20010904/DTD/svg10.dtd">
<svg version="1.0" xmlns="http://www.w3.org/2000/svg"
 width="36.000000pt" height="36.000000pt" viewBox="0 0 36.000000 36.000000"
 preserveAspectRatio="xMidYMid meet">

<g transform="translate(0.000000,36.000000) scale(0.100000,-0.100000)"
fill="#000000" stroke="none">
<path d="M126 346 c-89 -33 -138 -123 -115 -209 14 -54 72 -112 127 -126 121
-33 244 89 212 209 -27 100 -132 159 -224 126z m135 -29 c106 -71 106 -203 0
-274 -98 -66 -241 15 -241 137 0 122 143 203 241 137z"/>
<path d="M183 249 c-14 -5 -23 -17 -23 -29 0 -11 -5 -20 -12 -20 -9 0 -9 -3 0
-12 7 -7 12 -27 12 -45 0 -23 5 -33 15 -33 10 0 15 10 15 31 0 19 7 37 18 45
16 13 16 13 0 14 -23 0 -23 26 -2 38 23 13 4 22 -23 11z"/>
</g>
</svg>
