<?xml version="1.0" standalone="no"?>
<!DOCTYPE svg PUBLIC "-//W3C//DTD SVG 20010904//EN"
 "http://www.w3.org/TR/2001/REC-SVG-20010904/DTD/svg10.dtd">
<svg version="1.0" xmlns="http://www.w3.org/2000/svg"
 width="36.000000pt" height="36.000000pt" viewBox="0 0 36.000000 36.000000"
 preserveAspectRatio="xMidYMid meet">

<g transform="translate(0.000000,36.000000) scale(0.100000,-0.100000)"
fill="#000000" stroke="none">
<path d="M125 345 c-51 -18 -101 -72 -115 -124 -32 -121 91 -243 212 -210 55
14 113 72 127 127 35 129 -98 253 -224 207z m136 -28 c106 -71 106 -203 0
-274 -98 -66 -241 15 -241 137 0 122 143 203 241 137z"/>
<path d="M142 254 c-15 -11 -22 -25 -22 -50 0 -19 4 -34 8 -34 5 0 7 12 4 28
-5 37 27 67 62 58 34 -8 44 -48 21 -82 -22 -35 -41 -25 -37 20 2 20 -2 36 -8
36 -5 0 -10 -3 -11 -7 0 -5 -2 -19 -3 -33 -1 -14 -6 -40 -10 -59 -6 -24 -5
-31 3 -27 6 4 11 16 11 27 0 16 4 19 21 14 30 -10 59 21 59 61 0 58 -50 82
-98 48z"/>
</g>
</svg>
