<?xml version="1.0" standalone="no"?>
<!DOCTYPE svg PUBLIC "-//W3C//DTD SVG 20010904//EN"
 "http://www.w3.org/TR/2001/REC-SVG-20010904/DTD/svg10.dtd">
<svg version="1.0" xmlns="http://www.w3.org/2000/svg"
 width="36.000000pt" height="36.000000pt" viewBox="0 0 36.000000 36.000000"
 preserveAspectRatio="xMidYMid meet">

<g transform="translate(0.000000,36.000000) scale(0.100000,-0.100000)"
fill="#000000" stroke="none">
<path d="M126 346 c-89 -33 -138 -123 -115 -209 14 -54 72 -112 127 -126 121
-33 244 89 212 209 -27 100 -132 159 -224 126z m135 -29 c106 -71 106 -203 0
-274 -98 -66 -241 15 -241 137 0 122 143 203 241 137z"/>
<path d="M183 220 c-6 -24 -6 -24 -42 -5 -28 14 -29 14 -27 -10 0 -14 4 -25 9
-25 4 0 7 -7 7 -15 0 -8 5 -15 10 -15 17 0 11 -18 -7 -23 -10 -3 -2 -5 18 -6
45 -1 66 15 83 64 17 47 13 55 -21 55 -16 0 -27 -7 -30 -20z"/>
</g>
</svg>
